:SAMPLES-PER-SECOND 24
:FULLY-SPECIFIED
:DEGREES
390
root  -2.40294 38.8259 35.9255 83.5543 44.4749 74.4474
RightUpLeg  -38.4288 -47.8546 0.59807
RightLeg  16.3829 -7.38345 0.544146
RightFoot  -12.2154 -0.258791 -19.4843
RightToes  -1.74623e-010 0 -2.59999e-017
Spine  17.4904 1.45608 10.8474
Spine1  10.3007 6.84794 -12.3455
HEad  -21.0517 36.6278 -37.3254
LeftShoulder1  2.65664 -4.18538 -28.5007
LeftArm  -3.90356 17.2773 -8.2086
LeftForeArm  25.3192 -66.5352 -24.1702
LeftHand  -0.608643 0.927959 15.8418
RightShoulder  3.61679 6.36962 30.7342
RightArm  27.4635 2.92598 59.0231
RightForeArm  48.2827 68.8292 25.6721
RightHand  -1.42854 6.14437 -14.5744
LeftUpLeg  -26.2904 30.8989 13.842
LeftLeg  92.7439 0.0783514 -4.27486
LeftFoot  -2.05449 1.32923 -16.0489
LeftToes  -6.27559e-011 -2.10356e-011 8.24929e-012
391
root  -2.94625 39.4875 37.8789 94.0035 49.9651 85.1751
RightUpLeg  -37.9303 -49.9527 3.8056
RightLeg  19.3937 4.94863 3.53519
RightFoot  1.60635 0.632498 -7.35074
RightToes  -1.74623e-010 0 -2.59999e-017
Spine  13.5498 1.2381 6.10025
Spine1  9.82469 3.46972 -4.82476
HEad  -17.246 40.3944 -34.4686
LeftShoulder1  2.51255 -4.46501 -25.3732
LeftArm  -2.92025 16.9196 -14.7294
LeftForeArm  36.0569 -72.8395 -34.9173
LeftHand  -0.620837 1.34884 17.7782
RightShoulder  3.57019 6.30265 30.5036
RightArm  27.9371 -5.11971 47.209
RightForeArm  97.1608 80.9019 82.0795
RightHand  -0.744373 5.99845 -7.93366
LeftUpLeg  -27.3899 28.9287 15.3666
LeftLeg  91.8732 -0.514865 4.06344
LeftFoot  -4.22615 0.591347 -9.00016
LeftToes  -6.27559e-011 -2.10356e-011 8.24929e-012
392
root  -3.78794 39.618 39.6771 107.597 54.272 99.0467
RightUpLeg  -37.7857 -38.4341 -4.72983
RightLeg  41.3526 8.78701 7.99259
RightFoot  6.80964 -0.295929 2.43642
RightToes  -1.74623e-010 0 -2.59999e-017
Spine  11.4676 0.571845 2.64664
Spine1  7.87752 0.481338 1.48943
HEad  -15.1902 42.0287 -32.487
LeftShoulder1  2.26351 -4.31116 -22.6667
LeftArm  -0.607559 13.5919 -22.4148
LeftForeArm  59.9923 -78.0291 -55.6135
LeftHand  -0.561997 1.53212 16.7991
RightShoulder  3.35702 6.13074 28.907
RightArm  21.7993 -7.44648 37.3791
RightForeArm  74.0546 79.522 70.8363
RightHand  -0.949828 4.6388 -11.2575
LeftUpLeg  -31.7494 29.6315 16.67
LeftLeg  89.2965 -0.424246 6.54388
LeftFoot  -7.28216 0.259129 -6.07645
LeftToes  -6.27559e-011 -2.10356e-011 8.24929e-012
393
root  -4.80666 38.7683 41.7047 123.656 55.1659 115.989
RightUpLeg  -37.3822 -22.6272 -14.5805
RightLeg  66.5763 1.56467 3.33577
RightFoot  2.39053 0.30084 -2.36122
RightToes  -1.74623e-010 0 -2.59999e-017
Spine  10.8887 0.0510903 0.732764
Spine1  6.52166 -1.25499 3.46369
HEad  -15.5457 39.6787 -31.9263
LeftShoulder1  2.23495 -4.23275 -22.5945
LeftArm  -0.990817 9.36555 -30.595
LeftForeArm  97.9442 -80.1196 -93.0763
LeftHand  -0.388816 2.82547 17.3601
RightShoulder  3.18014 5.93516 27.7229
RightArm  17.3614 -6.38192 34.7145
RightForeArm  37.5358 72.3197 33.3209
RightHand  -1.16652 4.06934 -14.5142
LeftUpLeg  -39.187 28.7463 16.1448
LeftLeg  86.3101 -0.236689 1.98473
LeftFoot  -8.44905 0.218174 -6.63327
LeftToes  -6.27559e-011 -2.10356e-011 8.24929e-012
394
root  -5.58403 38.4659 43.9313 140.187 51.7471 136.114
RightUpLeg  -24.2541 -5.74033 -20.0155
RightLeg  69.7197 1.34258 2.94575
RightFoot  -0.689452 0.465212 -5.06151
RightToes  -1.74623e-010 0 -2.59999e-017
Spine  10.794 -0.989959 1.19218
Spine1  7.76523 -4.2734 8.90006
HEad  -15.7678 36.5244 -29.2215
LeftShoulder1  2.45915 -4.61059 -24.0929
LeftArm  -0.30175 3.57222 -39.4651
LeftForeArm  117.28 -79.1764 -113.922
LeftHand  -0.323103 3.58934 20.4725
RightShoulder  3.18638 5.74265 28.519
RightArm  17.933 -0.475436 34.1874
RightForeArm  24.2961 60.9314 18.0917
RightHand  -1.10911 4.71552 -12.9609
LeftUpLeg  -42.7861 23.2583 13.7014
LeftLeg  79.5728 0.0111284 1.8528
LeftFoot  -7.03471 0.302339 -6.9224
LeftToes  -6.27559e-011 -2.10356e-011 8.24929e-012
395
root  -5.84235 37.5562 45.9013 149.998 43.7298 149.637
RightUpLeg  -6.01103 12.8205 -14.2389
RightLeg  54.9154 0.514538 0.955146
RightFoot  -21.22 -0.0896085 -1.20334
RightToes  -1.74623e-010 0 -2.59999e-017
Spine  9.95928 -2.14874 -1.34266
Spine1  9.32634 -6.86841 12.5587
HEad  -15.694 33.2427 -23.373
LeftShoulder1  2.59698 -4.71268 -25.4563
LeftArm  3.80686 -4.28265 -45.1968
LeftForeArm  127.2 -78.4557 -121.963
LeftHand  -0.232652 4.10402 20.2393
RightShoulder  3.41403 5.79246 30.825
RightArm  19.4605 3.77464 34.3076
RightForeArm  18.6422 52.9824 13.3764
RightHand  -0.858277 3.86495 -11
LeftUpLeg  -42.0335 17.7884 10.1408
LeftLeg  76.1027 0.691079 4.70724
LeftFoot  -7.12844 0.30208 -7.0527
LeftToes  -6.27559e-011 -2.10356e-011 8.24929e-012
396
root  -6.30114 36.5811 47.594 155.955 37.8484 155.763
RightUpLeg  -3.54056 14.3705 -8.1587
RightLeg  48.1225 -2.36342 -3.23675
RightFoot  -32.6589 -0.270126 -0.0524659
RightToes  -1.74623e-010 0 -2.59999e-017
Spine  8.40578 -2.57307 0.877586
Spine1  9.68779 -5.74462 7.51803
HEad  -16.0285 29.2705 -19.581
LeftShoulder1  2.77955 -4.46043 -28.8624
LeftArm  8.21211 -11.5899 -46.0198
LeftForeArm  142.251 -76.5567 -134.231
LeftHand  -0.151793 4.43722 17.3258
RightShoulder  3.74919 6.11556 33.0902
RightArm  18.5279 4.61016 35.6644
RightForeArm  18.5886 49.4876 11.7379
RightHand  -0.794155 2.35483 -12.0935
LeftUpLeg  -40.3656 15.5927 6.4175
LeftLeg  77.0872 1.04514 6.88268
LeftFoot  -6.88038 0.304482 -6.75831
LeftToes  -6.27559e-011 -2.10356e-011 8.24929e-012
397
root  -6.94535 36.4979 48.964 159.795 32.7726 160.484
RightUpLeg  -7.65368 -2.43201 -8.92335
RightLeg  50.7429 1.36726 1.43715
RightFoot  -29.5381 -1.35816 -7.21746
RightToes  -1.74623e-010 0 -2.59999e-017
Spine  7.67031 -2.8708 5.79396
Spine1  10.5062 -4.2845 3.17265
HEad  -16.9527 25.3691 -20.4153
LeftShoulder1  2.97689 -4.47072 -31.3204
LeftArm  12.4166 -15.5278 -48.5203
LeftForeArm  148.112 -75.1255 -139.988
LeftHand  -0.148873 4.42293 16.7595
RightShoulder  3.76955 6.22542 32.8631
RightArm  17.5721 5.72374 37.1575
RightForeArm  18.0052 47.8615 11.0809
RightHand  -0.877762 2.14851 -13.6662
LeftUpLeg  -33.0554 13.524 3.86242
LeftLeg  76.477 1.53983 8.85479
LeftFoot  -6.14592 0.297758 -5.74839
LeftToes  -6.27559e-011 -2.10356e-011 8.24929e-012
398
root  -7.17543 36.7687 50.2132 161.513 24.7086 164.919
RightUpLeg  -5.90355 -16.3185 -9.92358
RightLeg  49.0364 4.10167 4.70861
RightFoot  -25.8133 -1.23464 -8.28031
RightToes  -1.74623e-010 0 -2.59999e-017
Spine  7.59505 -2.80228 4.64548
Spine1  11.5219 -4.88096 5.98126
HEad  -15.1012 21.0972 -19.8547
LeftShoulder1  2.86024 -4.67148 -28.9401
LeftArm  19.1221 -16.7795 -55.3849
LeftForeArm  138.573 -76.8383 -132.397
LeftHand  -0.117906 4.66959 17.4914
RightShoulder  3.57589 6.11215 31.2991
RightArm  15.5228 4.85727 36.4858
RightForeArm  16.8985 48.2319 11.3238
RightHand  -0.750084 1.22804 -13.2483
LeftUpLeg  -21.5822 10.7942 3.37834
LeftLeg  73.2201 2.68506 11.0824
LeftFoot  -6.27167 0.299502 -5.91341
LeftToes  -6.27559e-011 -2.10356e-011 8.24929e-012
